<mxfile host="app.diagrams.net" modified="2024-03-05T23:28:58.812Z" agent="Mozilla/5.0 (Windows NT 10.0; Win64; x64) AppleWebKit/537.36 (KHTML, like Gecko) Chrome/122.0.0.0 Safari/537.36" etag="ChISymuKiKZSBxxUXHeY" version="24.0.2" type="device">
  <diagram id="C5RBs43oDa-KdzZeNtuy" name="Page-1">
    <mxGraphModel dx="1235" dy="1851" grid="1" gridSize="10" guides="1" tooltips="1" connect="1" arrows="1" fold="1" page="1" pageScale="1" pageWidth="827" pageHeight="1169" math="0" shadow="0">
      <root>
        <mxCell id="WIyWlLk6GJQsqaUBKTNV-0" />
        <mxCell id="WIyWlLk6GJQsqaUBKTNV-1" parent="WIyWlLk6GJQsqaUBKTNV-0" />
        <mxCell id="AabIvUeRzBEUceUIqPgX-0" value="USUARIO" style="rounded=0;whiteSpace=wrap;html=1;" parent="WIyWlLk6GJQsqaUBKTNV-1" vertex="1">
          <mxGeometry x="666" y="-889" width="140" height="130" as="geometry" />
        </mxCell>
        <mxCell id="AabIvUeRzBEUceUIqPgX-1" value="ENDERECO" style="rounded=0;whiteSpace=wrap;html=1;" parent="WIyWlLk6GJQsqaUBKTNV-1" vertex="1">
          <mxGeometry x="340" y="-1120" width="140" height="130" as="geometry" />
        </mxCell>
        <mxCell id="AabIvUeRzBEUceUIqPgX-2" value="CATEGORIA" style="rounded=0;whiteSpace=wrap;html=1;" parent="WIyWlLk6GJQsqaUBKTNV-1" vertex="1">
          <mxGeometry x="30" y="-510" width="140" height="130" as="geometry" />
        </mxCell>
        <mxCell id="AabIvUeRzBEUceUIqPgX-3" value="EVENTO" style="rounded=0;whiteSpace=wrap;html=1;" parent="WIyWlLk6GJQsqaUBKTNV-1" vertex="1">
          <mxGeometry x="30" y="-890" width="140" height="130" as="geometry" />
        </mxCell>
        <mxCell id="AabIvUeRzBEUceUIqPgX-9" style="edgeStyle=orthogonalEdgeStyle;rounded=0;orthogonalLoop=1;jettySize=auto;html=1;exitX=1;exitY=0.5;exitDx=0;exitDy=0;entryX=0;entryY=0.5;entryDx=0;entryDy=0;endArrow=none;endFill=0;" parent="WIyWlLk6GJQsqaUBKTNV-1" source="AabIvUeRzBEUceUIqPgX-6" target="AabIvUeRzBEUceUIqPgX-0" edge="1">
          <mxGeometry relative="1" as="geometry" />
        </mxCell>
        <mxCell id="AabIvUeRzBEUceUIqPgX-10" style="edgeStyle=orthogonalEdgeStyle;rounded=0;orthogonalLoop=1;jettySize=auto;html=1;entryX=1;entryY=0.5;entryDx=0;entryDy=0;endArrow=none;endFill=0;" parent="WIyWlLk6GJQsqaUBKTNV-1" source="AabIvUeRzBEUceUIqPgX-6" target="AabIvUeRzBEUceUIqPgX-3" edge="1">
          <mxGeometry relative="1" as="geometry" />
        </mxCell>
        <mxCell id="AabIvUeRzBEUceUIqPgX-14" style="edgeStyle=orthogonalEdgeStyle;rounded=0;orthogonalLoop=1;jettySize=auto;html=1;exitX=0.5;exitY=0;exitDx=0;exitDy=0;entryX=0.5;entryY=1;entryDx=0;entryDy=0;fontSize=22;endArrow=none;endFill=0;" parent="WIyWlLk6GJQsqaUBKTNV-1" source="AabIvUeRzBEUceUIqPgX-13" target="AabIvUeRzBEUceUIqPgX-3" edge="1">
          <mxGeometry relative="1" as="geometry" />
        </mxCell>
        <mxCell id="AabIvUeRzBEUceUIqPgX-15" style="edgeStyle=orthogonalEdgeStyle;rounded=0;orthogonalLoop=1;jettySize=auto;html=1;exitX=0.5;exitY=1;exitDx=0;exitDy=0;entryX=0.5;entryY=0;entryDx=0;entryDy=0;fontSize=22;endArrow=none;endFill=0;" parent="WIyWlLk6GJQsqaUBKTNV-1" source="AabIvUeRzBEUceUIqPgX-13" target="AabIvUeRzBEUceUIqPgX-2" edge="1">
          <mxGeometry relative="1" as="geometry" />
        </mxCell>
        <mxCell id="AabIvUeRzBEUceUIqPgX-13" value="POSSUI" style="rhombus;whiteSpace=wrap;html=1;" parent="WIyWlLk6GJQsqaUBKTNV-1" vertex="1">
          <mxGeometry x="40.5" y="-690" width="119" height="102" as="geometry" />
        </mxCell>
        <mxCell id="AabIvUeRzBEUceUIqPgX-20" style="edgeStyle=orthogonalEdgeStyle;rounded=0;orthogonalLoop=1;jettySize=auto;html=1;exitX=1;exitY=0.5;exitDx=0;exitDy=0;entryX=0;entryY=0.5;entryDx=0;entryDy=0;fontSize=22;endArrow=none;endFill=0;" parent="WIyWlLk6GJQsqaUBKTNV-1" source="AabIvUeRzBEUceUIqPgX-18" target="AabIvUeRzBEUceUIqPgX-1" edge="1">
          <mxGeometry relative="1" as="geometry" />
        </mxCell>
        <mxCell id="AabIvUeRzBEUceUIqPgX-21" style="edgeStyle=orthogonalEdgeStyle;rounded=0;orthogonalLoop=1;jettySize=auto;html=1;exitX=0.5;exitY=1;exitDx=0;exitDy=0;entryX=0.5;entryY=0;entryDx=0;entryDy=0;fontSize=22;endArrow=none;endFill=0;" parent="WIyWlLk6GJQsqaUBKTNV-1" source="AabIvUeRzBEUceUIqPgX-18" target="AabIvUeRzBEUceUIqPgX-3" edge="1">
          <mxGeometry relative="1" as="geometry" />
        </mxCell>
        <mxCell id="AabIvUeRzBEUceUIqPgX-18" value="POSSUI" style="rhombus;whiteSpace=wrap;html=1;" parent="WIyWlLk6GJQsqaUBKTNV-1" vertex="1">
          <mxGeometry x="40.5" y="-1106" width="119" height="102" as="geometry" />
        </mxCell>
        <mxCell id="AabIvUeRzBEUceUIqPgX-22" style="edgeStyle=orthogonalEdgeStyle;rounded=0;orthogonalLoop=1;jettySize=auto;html=1;exitX=0;exitY=0.5;exitDx=0;exitDy=0;entryX=1;entryY=0.5;entryDx=0;entryDy=0;fontSize=22;endArrow=none;endFill=0;" parent="WIyWlLk6GJQsqaUBKTNV-1" source="AabIvUeRzBEUceUIqPgX-19" target="AabIvUeRzBEUceUIqPgX-1" edge="1">
          <mxGeometry relative="1" as="geometry" />
        </mxCell>
        <mxCell id="AabIvUeRzBEUceUIqPgX-23" style="edgeStyle=orthogonalEdgeStyle;rounded=0;orthogonalLoop=1;jettySize=auto;html=1;exitX=0.5;exitY=1;exitDx=0;exitDy=0;entryX=0.5;entryY=0;entryDx=0;entryDy=0;fontSize=22;endArrow=none;endFill=0;" parent="WIyWlLk6GJQsqaUBKTNV-1" source="AabIvUeRzBEUceUIqPgX-19" target="AabIvUeRzBEUceUIqPgX-0" edge="1">
          <mxGeometry relative="1" as="geometry" />
        </mxCell>
        <mxCell id="AabIvUeRzBEUceUIqPgX-19" value="POSSUI" style="rhombus;whiteSpace=wrap;html=1;" parent="WIyWlLk6GJQsqaUBKTNV-1" vertex="1">
          <mxGeometry x="676.5" y="-1105" width="119" height="102" as="geometry" />
        </mxCell>
        <mxCell id="AabIvUeRzBEUceUIqPgX-24" value="1" style="text;html=1;align=center;verticalAlign=middle;resizable=0;points=[];autosize=1;strokeColor=none;fillColor=none;fontSize=22;" parent="WIyWlLk6GJQsqaUBKTNV-1" vertex="1">
          <mxGeometry x="68" y="-923" width="30" height="30" as="geometry" />
        </mxCell>
        <mxCell id="AabIvUeRzBEUceUIqPgX-25" value="1" style="text;html=1;align=center;verticalAlign=middle;resizable=0;points=[];autosize=1;strokeColor=none;fillColor=none;fontSize=22;" parent="WIyWlLk6GJQsqaUBKTNV-1" vertex="1">
          <mxGeometry x="307" y="-1087" width="30" height="30" as="geometry" />
        </mxCell>
        <mxCell id="AabIvUeRzBEUceUIqPgX-27" value="1" style="text;html=1;align=center;verticalAlign=middle;resizable=0;points=[];autosize=1;strokeColor=none;fillColor=none;fontSize=22;" parent="WIyWlLk6GJQsqaUBKTNV-1" vertex="1">
          <mxGeometry x="482" y="-1085" width="30" height="30" as="geometry" />
        </mxCell>
        <mxCell id="7W0E56mUkElL6WpmAHvn-1" value="N" style="text;html=1;align=center;verticalAlign=middle;resizable=0;points=[];autosize=1;strokeColor=none;fillColor=none;fontSize=22;" vertex="1" parent="WIyWlLk6GJQsqaUBKTNV-1">
          <mxGeometry x="627" y="-864" width="40" height="40" as="geometry" />
        </mxCell>
        <mxCell id="7W0E56mUkElL6WpmAHvn-2" value="1" style="text;html=1;align=center;verticalAlign=middle;resizable=0;points=[];autosize=1;strokeColor=none;fillColor=none;fontSize=22;" vertex="1" parent="WIyWlLk6GJQsqaUBKTNV-1">
          <mxGeometry x="300" y="-865" width="40" height="40" as="geometry" />
        </mxCell>
        <mxCell id="7W0E56mUkElL6WpmAHvn-4" value="" style="group" vertex="1" connectable="0" parent="WIyWlLk6GJQsqaUBKTNV-1">
          <mxGeometry x="340" y="-893" width="160" height="136" as="geometry" />
        </mxCell>
        <mxCell id="7W0E56mUkElL6WpmAHvn-3" value="" style="rounded=0;whiteSpace=wrap;html=1;" vertex="1" parent="7W0E56mUkElL6WpmAHvn-4">
          <mxGeometry y="3" width="160" height="130" as="geometry" />
        </mxCell>
        <mxCell id="AabIvUeRzBEUceUIqPgX-6" value="USUARIOEVENTO" style="rhombus;whiteSpace=wrap;html=1;" parent="7W0E56mUkElL6WpmAHvn-4" vertex="1">
          <mxGeometry width="158.67" height="136" as="geometry" />
        </mxCell>
        <mxCell id="7W0E56mUkElL6WpmAHvn-7" value="N" style="text;html=1;align=center;verticalAlign=middle;resizable=0;points=[];autosize=1;strokeColor=none;fillColor=none;fontSize=22;" vertex="1" parent="WIyWlLk6GJQsqaUBKTNV-1">
          <mxGeometry x="170" y="-865" width="40" height="40" as="geometry" />
        </mxCell>
        <mxCell id="7W0E56mUkElL6WpmAHvn-9" value="1" style="text;html=1;align=center;verticalAlign=middle;resizable=0;points=[];autosize=1;strokeColor=none;fillColor=none;fontSize=22;" vertex="1" parent="WIyWlLk6GJQsqaUBKTNV-1">
          <mxGeometry x="500" y="-864" width="40" height="40" as="geometry" />
        </mxCell>
        <mxCell id="7W0E56mUkElL6WpmAHvn-10" value="1" style="text;html=1;align=center;verticalAlign=middle;resizable=0;points=[];autosize=1;strokeColor=none;fillColor=none;fontSize=22;" vertex="1" parent="WIyWlLk6GJQsqaUBKTNV-1">
          <mxGeometry x="736" y="-930" width="40" height="40" as="geometry" />
        </mxCell>
        <mxCell id="7W0E56mUkElL6WpmAHvn-11" value="1" style="text;html=1;align=center;verticalAlign=middle;resizable=0;points=[];autosize=1;strokeColor=none;fillColor=none;fontSize=22;" vertex="1" parent="WIyWlLk6GJQsqaUBKTNV-1">
          <mxGeometry x="58" y="-760" width="40" height="40" as="geometry" />
        </mxCell>
        <mxCell id="7W0E56mUkElL6WpmAHvn-12" value="1" style="text;html=1;align=center;verticalAlign=middle;resizable=0;points=[];autosize=1;strokeColor=none;fillColor=none;fontSize=22;" vertex="1" parent="WIyWlLk6GJQsqaUBKTNV-1">
          <mxGeometry x="60" y="-550" width="40" height="40" as="geometry" />
        </mxCell>
      </root>
    </mxGraphModel>
  </diagram>
</mxfile>
